<svg id="Layer_2" data-name="Layer 2" xmlns="http://www.w3.org/2000/svg" viewBox="0 0 184.69 22.66"><defs><style>.cls-1{fill:#1a1a1a;}</style></defs><title>not-logo-185x26</title><path class="cls-1" d="M2.35,7.09l-.21.31A2.44,2.44,0,0,1,.67,5.11C.67,3.56,2,2.2,4.1,2.2c1.83,0,4.7,1.55,6.68,1.55.46,0,.91-.22.91-.7,0-.76-1-.86-1.65-.95V1.69c2-.16,3.61,1,3.61,2.54s-1.38,2.4-2.94,2.4h0V9.24l1.44,1.44-1.44,1.45v3.31a6.16,6.16,0,0,0,2.25-2.85h.42v.21a6.07,6.07,0,0,1-6.28,5.94A6.84,6.84,0,0,1,.16,12a6.16,6.16,0,0,1,5.1-6l.21.32A6.4,6.4,0,0,0,3.28,8.82l4.77-2v6.57L4.23,15a4.79,4.79,0,0,0,3.44,1.39,5.41,5.41,0,0,0,2.41-.56V12.11L8.66,10.68l1.42-1.42V6.58C8,6.34,4.27,5.12,3.25,5.12c-.75,0-1.43.38-1.43,1.13A.92.92,0,0,0,2.35,7.09Zm.39,4.2a5.22,5.22,0,0,0,1.09,3.23l1.42-.61V8.61L3,9.56A5.83,5.83,0,0,0,2.74,11.29Z" transform="translate(-0.16 -1.67)"/><path class="cls-1" d="M19.21,16.93l.68-.46.39.48-2.7,1.87-2.23-1.89-.83.52-.37-.5L15.6,16V6.15c0-.35,0-.82-1-1.14V4.7l3.53-2.49h.42v8l2.7-2.53L23.5,9.63l.86-.7.38.47-.93.76v6.19c0,2.23-.76,4.91-4.52,4.91a5.19,5.19,0,0,1-.68-.05v-.52c1.6,0,2.39-2.1,2.39-4.34V10.83L19.71,9.76l-1.2,1.13v5.34Z" transform="translate(-0.16 -1.67)"/><path class="cls-1" d="M25,17l1-.83V10.41l5.19-2.7L33.35,11v.11l-4.67,2.91V15l2.59,1.77,2.39-1.87.31.52L29.51,19l-3.22-2.39-1,.78Zm5.9-5L29.09,9.37l-.41.24V13.3Z" transform="translate(-0.16 -1.67)"/><path class="cls-1" d="M42.45,12.47l-.11.31a2.07,2.07,0,0,1-1.53-2,2.52,2.52,0,0,1,2.61-2.44h0V5.39a1.38,1.38,0,0,0-1-.6c-.62,0-1,.42-1,1.15l-.42-.1a2.88,2.88,0,0,1-.06-.59,2.8,2.8,0,0,1,2.72-2.86c1.57,0,2.15,1.13,2.73,2.11l5.21,8.72V6.07a3.57,3.57,0,0,1-2.18-1L48.7,6l-.31-.31,2.7-3.12h.43a2.16,2.16,0,0,0,1.68.93,1.28,1.28,0,0,0,1.32-1.14h.3a2.36,2.36,0,0,1,.26,1.08,2.74,2.74,0,0,1-2.77,2.58V18.82H51.5L44.24,6.52l-.18-.29v8.64a4.72,4.72,0,0,1,2.66,1.36l.73-.83.31.31L45,18.82a2.51,2.51,0,0,0-1.81-.93,1,1,0,0,0-1.11,1,1.26,1.26,0,0,0,1.45,1.18l-.1.41a2.77,2.77,0,0,1-3.24-2.74,3,3,0,0,1,3.27-2.93h0V11.26h-.23c-.55,0-1,.16-1,.71A.58.58,0,0,0,42.45,12.47Z" transform="translate(-0.16 -1.67)"/><path class="cls-1" d="M54.34,16.88l1.11-.9V10.41l4.88-2.8L63.45,10v5.92l-4.78,2.9-3-2.2-.9.73Zm6.41.28V10.93L58.26,9.27V15.5Z" transform="translate(-0.16 -1.67)"/><path class="cls-1" d="M69.92,17.27l.71-.38.32.41-3,1.55-2.28-2-.83.52L64.54,17,66,16v-5.2a1,1,0,0,0-1-1V9.49L68.48,6h.42V8.44h2.57l-1,1.19H68.9v6.62Z" transform="translate(-0.16 -1.67)"/><path class="cls-1" d="M87.88,22.14c-1.46,0-4.19.94-6.15.94a2.94,2.94,0,0,1-3.27-2.85,3.17,3.17,0,0,1,2.09-2.91v-5h-.37c-.55,0-1.05.16-1.05.7a.61.61,0,0,0,.28.51l-.11.3a2.06,2.06,0,0,1-1.53-2,2.53,2.53,0,0,1,2.61-2.45h.17V5.56c0-.33,0-1.29-.82-1.29-.58,0-.9.38-.9,1h-.52a2.78,2.78,0,0,1,2.8-2.72c1.56,0,2.49,1.13,2.49,2.93V17.24c.49.12,1,.25,1.4.34V2.71h.62V4.89l2.94-2.38,2.2,1.89.81-.66.38.48-1.1.89,0,10.52c0,1.46-.44,3-2.72,3-1.73,0-3.83-.94-6-.94-1,0-2.22.4-2.22,1.48,0,.87.82,1.29,1.66,1.29,1.42,0,3.46-1,6.31-1,1.66,0,3.08.77,3.08,2.31a2.62,2.62,0,0,1-1.75,2.35,3.1,3.1,0,0,1-.8.25l-.1-.42a.87.87,0,0,0,.73-.85C89.09,22.44,88.5,22.14,87.88,22.14ZM85.62,9.37a1.85,1.85,0,0,0,2.22-.07V5.84l-1.17-1-1,.82Zm0,2.55a1.88,1.88,0,0,1,2.22.07V9.93a1.88,1.88,0,0,1-2.22.07Zm0,5.72c1.28,0,2.18-.68,2.18-3.11V12.62a1.83,1.83,0,0,0-2.22-.07v5.09Z" transform="translate(-0.16 -1.67)"/><path class="cls-1" d="M92.28,16.88l1.11-.9V10.41l4.88-2.8L101.39,10v5.92l-4.78,2.9-3-2.2-.9.73Zm6.41.28V10.93L96.2,9.27V15.5Z" transform="translate(-0.16 -1.67)"/><path class="cls-1" d="M109.36,16.59l-3.24,2.34-2.38-1.87-.73.52-.31-.42,1.35-.93V10.51l-.73-.93-.83.52-.31-.42,2.91-2,1.59,1.71,1.51-1.72h.22a1.16,1.16,0,0,0,2,0H111c-.26,2.69-1.51,3-2.16,3a3,3,0,0,1-1.94-.89v6.39l.86.67,1.17-.8Z" transform="translate(-0.16 -1.67)"/><path class="cls-1" d="M111.35,5V4.7l3.53-2.49h.41v14l.83.83.63-.52.31.41-2.7,1.87-2.29-2-.83.52-.31-.42,1.45-.93V6.15C112.38,5.41,111.9,5.18,111.35,5Zm6.54,5.19-.2.42L121.94,17l.94-.62.41.52L120,19l-4.26-6.23,3.22-5h.21a1.59,1.59,0,0,0,2.8,0h.42c-.23,1.54-.92,3.12-2.67,3.12A2.58,2.58,0,0,1,117.89,10.2Z" transform="translate(-0.16 -1.67)"/><path class="cls-1" d="M132.44,7.09l-.21.31a2.44,2.44,0,0,1-1.47-2.29c0-1.55,1.32-2.91,3.43-2.91,1.83,0,4.7,1.55,6.68,1.55.46,0,.91-.22.91-.7,0-.76-1-.86-1.65-.95V1.69c2-.16,3.61,1,3.61,2.54s-1.38,2.4-2.94,2.4h0V9.24l1.44,1.44-1.44,1.45v3.31A6.24,6.24,0,0,0,143,12.59h.41v.21a6.07,6.07,0,0,1-6.28,5.94A6.84,6.84,0,0,1,130.25,12a6.16,6.16,0,0,1,5.1-6l.21.32a6.48,6.48,0,0,0-2.19,2.56l4.77-2v6.57L134.32,15a4.79,4.79,0,0,0,3.44,1.39,5.38,5.38,0,0,0,2.41-.56V12.11l-1.42-1.43,1.42-1.42V6.58c-2.06-.24-5.81-1.46-6.83-1.46-.75,0-1.43.38-1.43,1.13A.92.92,0,0,0,132.44,7.09Zm.39,4.2a5.22,5.22,0,0,0,1.09,3.23l1.42-.61V8.61l-2.26,1A5.83,5.83,0,0,0,132.83,11.29Z" transform="translate(-0.16 -1.67)"/><path class="cls-1" d="M150.66,16.75l-3.11,2.18-2.08-1.87-.73.52-.31-.42,1.35-.93V10.51l-.72-.93-.84.52-.31-.42,2.91-2,1.66,2v6.55l.73.72.93-.62ZM147.16,3,149,5.07l-2.06,1.82-1.85-2.1Z" transform="translate(-0.16 -1.67)"/><path class="cls-1" d="M158.77,19.14l-2.15-1.87.91-.84V11.09L156,9.73l-.94.57v6.13l.93.84-2.07,1.87-2.5-2,.83-.73V10.68l-.83-.94-.83.52-.31-.41,3-2.08,1.6,1.78,2.84-1.78,2.16,1.86,3-1.86,2.25,1.94.7-.57.39.47-1.07.87v5.44l1,1,.93-.71v.8l-3.21,2.09-2.15-1.87.91-.84V11.09l-1.5-1.36-1.14.69v5.79l1.13,1Z" transform="translate(-0.16 -1.67)"/><path class="cls-1" d="M167.1,17l1-.83V10.41l5.19-2.7L175.5,11v.11l-4.67,2.91V15l2.6,1.77,2.38-1.87.32.52L171.66,19l-3.21-2.39-1,.78Zm5.91-5-1.76-2.55-.42.24V13.3Z" transform="translate(-0.16 -1.67)"/><path class="cls-1" d="M176.67,17.93c0-.9.35-1.7,2.05-3.28l-1.64-1.29v-3l4.48-2.6a2,2,0,0,0,1.58.94,1,1,0,0,0,1.08-.9h.62a5.74,5.74,0,0,1-1.88,4l1.86,1.38v3.28L180.54,19a1.85,1.85,0,0,0-1.6-1,.92.92,0,0,0-1,.82.59.59,0,0,0,.31.54L178,20A2.12,2.12,0,0,1,176.67,17.93Zm3.38-3.64a16.41,16.41,0,0,0-2.07,2,2.41,2.41,0,0,1,1.52-.52A2.78,2.78,0,0,1,182,17.4V14.57l-1.2-1Zm2.32-2.8a5.22,5.22,0,0,0,.92-1,2.78,2.78,0,0,1-1.08.22,2.45,2.45,0,0,1-2.33-1.59V12l.89.91Z" transform="translate(-0.16 -1.67)"/></svg>